<?xml version="1.0" encoding="UTF-8"?>
<!DOCTYPE svg PUBLIC "-//W3C//DTD SVG 1.1//EN" "http://www.w3.org/Graphics/SVG/1.1/DTD/svg11.dtd">
<svg xmlns="http://www.w3.org/2000/svg" version="1.1" width="256px" height="256px" style="shape-rendering:geometricPrecision; text-rendering:geometricPrecision; image-rendering:optimizeQuality; fill-rule:evenodd; clip-rule:evenodd" xmlns:xlink="http://www.w3.org/1999/xlink">
<g><path style="opacity:0.997" fill="#20b69e" d="M 47.5,12.5 C 100.834,12.3333 154.168,12.5 207.5,13C 225.658,17.8245 237.158,29.3245 242,47.5C 242.667,100.833 242.667,154.167 242,207.5C 237.167,225.667 225.667,237.167 207.5,242C 154.167,242.667 100.833,242.667 47.5,242C 29.3333,237.167 17.8333,225.667 13,207.5C 12.3333,154.167 12.3333,100.833 13,47.5C 18.0157,29.3183 29.5157,17.6517 47.5,12.5 Z M 118.5,55.5 C 156.069,54.7341 176.736,73.0675 180.5,110.5C 179.082,124.254 174.582,136.921 167,148.5C 155.722,167.103 142.556,184.103 127.5,199.5C 112.444,184.103 99.2778,167.103 88,148.5C 82.2991,138.762 77.9657,128.429 75,117.5C 73.1537,94.365 81.6537,76.1983 100.5,63C 106.328,59.7883 112.328,57.2883 118.5,55.5 Z"/></g>
<g><path style="opacity:0.984" fill="#1fb69e" d="M 121.5,83.5 C 142.314,82.1466 151.814,91.8132 150,112.5C 142.858,128.995 131.024,133.495 114.5,126C 103.836,116.953 101.669,106.12 108,93.5C 111.531,88.795 116.031,85.4617 121.5,83.5 Z"/></g>
</svg>
